<svg width="634" height="301" xmlns="http://www.w3.org/2000/svg" xmlns:xlink="http://www.w3.org/1999/xlink" overflow="hidden"><defs><clipPath id="clip0"><rect x="112" y="200" width="634" height="301"/></clipPath></defs><g clip-path="url(#clip0)" transform="translate(-112 -200)"><text font-family="DengXian,DengXian_MSFontService,sans-serif" font-weight="400" font-size="15" transform="translate(122.408 313)">C<tspan font-family="Cambria Math,Cambria Math_MSFontService,sans-serif" font-size="15" x="9.16667" y="0"> </tspan><tspan font-family="Cambria Math,Cambria Math_MSFontService,sans-serif" font-size="15" x="12.3333" y="0">Ã—</tspan><tspan font-family="Cambria Math,Cambria Math_MSFontService,sans-serif" font-size="15" x="26.0933" y="0">ğ‘‰</tspan><tspan font-family="Cambria Math,Cambria Math_MSFontService,sans-serif" font-size="15" x="38.9867" y="0">Ã—</tspan><tspan font-family="Cambria Math,Cambria Math_MSFontService,sans-serif" font-size="15" x="52.7467" y="0">ğ‘‡</tspan></text><rect x="244.5" y="202.5" width="411" height="229" stroke="#C55A11" stroke-width="2.66667" stroke-miterlimit="8" stroke-dasharray="8 2.66667" fill="#FFFFFF"/><rect x="231.5" y="216.5" width="411" height="229" stroke="#C55A11" stroke-width="2.66667" stroke-miterlimit="8" stroke-dasharray="8 2.66667" fill="#FFFFFF"/><rect x="221.5" y="231.5" width="410" height="228" stroke="#C55A11" stroke-width="2.66667" stroke-miterlimit="8" stroke-dasharray="8 2.66667" fill="#FFFFFF"/><path d="M128 332.568C128 331.702 128.702 331 129.568 331L180.432 331C181.298 331 182 331.702 182 332.568L182 351.432C182 352.298 181.298 353 180.432 353L129.568 353C128.702 353 128 352.298 128 351.432Z" stroke="#5B9BD5" stroke-width="2.33333" stroke-miterlimit="8" fill="#E2F0D9" fill-rule="evenodd"/><text font-family="Times New Roman,Times New Roman_MSFontService,sans-serif" font-weight="700" font-size="13" transform="translate(148.848 347)">f<tspan font-size="9" x="4.5" y="2">in</tspan></text><path d="M667 319.568C667 318.702 667.702 318 668.568 318L722.432 318C723.298 318 724 318.702 724 319.568L724 338.432C724 339.298 723.298 340 722.432 340L668.568 340C667.702 340 667 339.298 667 338.432Z" stroke="#5B9BD5" stroke-width="2.33333" stroke-miterlimit="8" fill="#E2F0D9" fill-rule="evenodd"/><text font-family="Times New Roman,Times New Roman_MSFontService,sans-serif" font-weight="700" font-size="13" transform="translate(687.048 334)">f<tspan font-size="9" x="4.5" y="2">out</tspan></text><path d="M684.5 377C684.5 369.544 689.649 363.5 696 363.5 702.351 363.5 707.5 369.544 707.5 377 707.5 384.456 702.351 390.5 696 390.5 689.649 390.5 684.5 384.456 684.5 377Z" stroke="#AE5A21" stroke-width="1.33333" stroke-miterlimit="8" fill="none" fill-rule="evenodd"/><text font-family="DengXian,DengXian_MSFontService,sans-serif" font-weight="700" font-size="19" transform="translate(689.048 382)">+</text><path d="M342 311C342 303.268 347.373 297 354 297 360.627 297 366 303.268 366 311 366 318.732 360.627 325 354 325 347.373 325 342 318.732 342 311Z" stroke="#AE5A21" stroke-width="2.33333" stroke-miterlimit="8" fill="none" fill-rule="evenodd"/><text font-family="DengXian,DengXian_MSFontService,sans-serif" font-weight="700" font-size="19" transform="translate(349.03 317)">x</text><path d="M544 313C544 305.268 549.149 299 555.5 299 561.851 299 567 305.268 567 313 567 320.732 561.851 327 555.5 327 549.149 327 544 320.732 544 313Z" stroke="#AE5A21" stroke-width="2.33333" stroke-miterlimit="8" fill="none" fill-rule="evenodd"/><text font-family="DengXian,DengXian_MSFontService,sans-serif" font-weight="700" font-size="19" transform="translate(549.06 319)">+</text><path d="M587 376.5C587 369.044 592.373 363 599 363 605.627 363 611 369.044 611 376.5 611 383.956 605.627 390 599 390 592.373 390 587 383.956 587 376.5Z" stroke="#AE5A21" stroke-width="2.33333" stroke-miterlimit="8" fill="none" fill-rule="evenodd"/><text font-family="DengXian,DengXian_MSFontService,sans-serif" font-weight="700" font-size="19" transform="translate(594.476 382)">x</text><path d="M473 274.497C473 273.67 473.67 273 474.497 273L524.503 273C525.33 273 526 273.67 526 274.497L526 292.503C526 293.33 525.33 294 524.503 294L474.497 294C473.67 294 473 293.33 473 292.503Z" stroke="#5B9BD5" stroke-width="2.33333" stroke-miterlimit="8" fill="#FBE5D6" fill-rule="evenodd"/><text font-family="Times New Roman,Times New Roman_MSFontService,sans-serif" font-weight="400" font-size="13" transform="translate(494.654 288)">A</text><path d="M473 333.497C473 332.67 473.67 332 474.497 332L524.503 332C525.33 332 526 332.67 526 333.497L526 351.503C526 352.33 525.33 353 524.503 353L474.497 353C473.67 353 473 352.33 473 351.503Z" stroke="#5B9BD5" stroke-width="2.33333" stroke-miterlimit="8" fill="#FBE5D6" fill-rule="evenodd"/><text font-family="Times New Roman,Times New Roman_MSFontService,sans-serif" font-weight="400" font-size="13" transform="translate(495.071 347)">B</text><path d="M382 301.568C382 300.702 382.702 300 383.568 300L451.432 300C452.298 300 453 300.702 453 301.568L453 320.432C453 321.298 452.298 322 451.432 322L383.568 322C382.702 322 382 321.298 382 320.432Z" stroke="#5B9BD5" stroke-width="2.33333" stroke-miterlimit="8" fill="#FBE5D6" fill-rule="evenodd"/><text font-family="Times New Roman,Times New Roman_MSFontService,sans-serif" font-weight="400" font-size="13" transform="translate(394.381 316)">SoftMax</text><rect x="252" y="267" width="40" height="28" stroke="#5B9BD5" stroke-width="2.33333" stroke-miterlimit="8" fill="#FBE5D6"/><text fill="#FF0000" font-family="Cambria Math,Cambria Math_MSFontService,sans-serif" font-weight="400" font-size="15" transform="translate(267.206 286)">Ï†</text><rect x="252" y="329" width="40" height="27" stroke="#5B9BD5" stroke-width="2.33333" stroke-miterlimit="8" fill="#FBE5D6"/><text fill="#FF0000" font-family="Cambria Math,Cambria Math_MSFontService,sans-serif" font-weight="400" font-size="15" transform="translate(268.073 348)">ğœƒ</text><path d="M0-1 32.8554-1 32.8554 61.1471 31.8554 60.1471 64.2113 60.1471 64.2113 62.1471 30.8554 62.1471 30.8554 0 31.8554 1 0 1ZM62.878 57.1471 70.878 61.1471 62.878 65.1471Z" transform="matrix(1 0 0 -1 182 342.147)"/><path d="M182 341 215.175 341 215.175 413.924 214.175 412.924 599.581 412.924 598.581 413.924 598.581 396.591 600.581 396.591 600.581 414.924 213.175 414.924 213.175 342 214.175 343 182 343ZM595.581 397.924 599.581 389.924 603.581 397.924Z"/><path d="M292 280 317.661 280 317.661 310.949 316.661 309.949 334.655 309.949 334.655 311.949 315.661 311.949 315.661 281 316.661 282 292 282ZM333.321 306.949 341.321 310.949 333.321 314.949Z" fill="#4472C4"/><path d="M0-1 25.6606-1 25.6606 31.4356 24.6606 30.4356 42.6546 30.4356 42.6546 32.4356 23.6606 32.4356 23.6606 0 24.6606 1 0 1ZM41.3213 27.4356 49.3213 31.4356 41.3213 35.4356Z" fill="#4472C4" transform="matrix(1 0 0 -1 292 342.436)"/><text font-family="Cambria Math,Cambria Math_MSFontService,sans-serif" font-weight="400" font-size="15" transform="translate(302.073 270)">ğ¶<tspan font-size="11" x="7.97333" y="3">ğ‘’</tspan><tspan font-size="15" x="14.7333" y="0">ğ‘‡</tspan><tspan font-size="15" x="26.98" y="0">Ã—</tspan><tspan font-size="15" x="41.48" y="0">ğ‘‰</tspan><tspan font-size="15" x="2.74786" y="90">ğ‘‰</tspan><tspan font-size="15" x="15.6412" y="90">Ã—</tspan><tspan font-size="15" x="29.4012" y="90">ğ¶</tspan><tspan font-size="11" x="37.3745" y="93">ğ‘’</tspan><tspan font-size="15" x="44.1345" y="90">ğ‘‡</tspan></text><path d="M182.003 341 246.215 341.215 246.208 343.215 181.997 343ZM244.891 338.211 252.878 342.237 244.865 346.21Z"/><path d="M0.0158526-0.999874 10.1365-0.839416 10.1048 1.16033-0.0158526 0.999874ZM8.85087-3.86018 16.7865 0.266142 8.72405 4.13882Z" fill="#4472C4" transform="matrix(1 0 0 -1 366 311.266)"/><path d="M0-1 10.865-1 10.865 27.4312 9.86504 26.4312 13.0634 26.4312 13.0634 28.4312 8.86504 28.4312 8.86504 0 9.86504 1 0 1ZM11.7301 23.4312 19.7301 27.4312 11.7301 31.4312Z" fill="#4472C4" transform="matrix(1 0 0 -1 453 310.431)"/><path d="M453 310 463.865 310 463.865 342.702 462.865 341.702 466.063 341.702 466.063 343.702 461.865 343.702 461.865 311 462.865 312 453 312ZM464.73 338.702 472.73 342.702 464.73 346.702Z" fill="#4472C4"/><path d="M526 282 556.36 282 556.36 292.064 554.36 292.064 554.36 283 555.36 284 526 284ZM559.36 290.731 555.36 298.731 551.36 290.731Z" fill="#4472C4"/><path d="M0-1 30.3599-1 30.3599 9.27003 28.3599 9.27003 28.3599 0 29.3599 1 0 1ZM33.3599 7.93669 29.3599 15.9367 25.3599 7.93669Z" fill="#4472C4" transform="matrix(1 0 0 -1 526 342.937)"/><path d="M567 312 599.681 312 599.681 356.224 597.681 356.224 597.681 313 598.681 314 567 314ZM602.681 354.891 598.681 362.891 594.681 354.891Z" fill="#4472C4"/><text font-family="Cambria Math,Cambria Math_MSFontService,sans-serif" font-weight="400" font-size="15" transform="translate(539.441 428)">ğ¶<tspan font-size="15" x="9.48004" y="0"> </tspan><tspan font-size="15" x="12.6467" y="0">ğ‘‡</tspan><tspan font-size="15" x="24.8934" y="0">Ã—</tspan><tspan font-size="15" x="39.3934" y="0">ğ‘‰</tspan><tspan font-size="15" x="30.9571" y="-128">ğ‘‰</tspan><tspan font-size="15" x="43.8504" y="-128">Ã—</tspan><tspan font-size="15" x="58.3504" y="-128">ğ‘‰</tspan></text><rect x="657" y="286" width="89" height="28" fill="#FFFFFF"/><text font-family="DengXian,DengXian_MSFontService,sans-serif" font-weight="400" font-size="15" transform="translate(666.78 305)">C<tspan font-family="Cambria Math,Cambria Math_MSFontService,sans-serif" font-size="15" x="9.16669" y="0"> </tspan><tspan font-family="Cambria Math,Cambria Math_MSFontService,sans-serif" font-size="15" x="12.3334" y="0">Ã—</tspan><tspan font-family="Cambria Math,Cambria Math_MSFontService,sans-serif" font-size="15" x="26.0934" y="0">ğ‘‰</tspan><tspan font-family="Cambria Math,Cambria Math_MSFontService,sans-serif" font-size="15" x="38.9867" y="0">Ã—</tspan><tspan font-family="Cambria Math,Cambria Math_MSFontService,sans-serif" font-size="15" x="52.7467" y="0">ğ‘‡</tspan></text><path d="M0-1.33333 8-1.33333 8 1.33333 0 1.33333ZM10.6667-1.33333 18.6667-1.33333 18.6667 1.33333 10.6667 1.33333ZM21.3333-1.33333 29.3333-1.33333 29.3333 1.33333 21.3333 1.33333ZM32-1.33333 40-1.33333 40 1.33333 32 1.33333ZM42.6667-1.33333 50.6667-1.33333 50.6667 1.33333 42.6667 1.33333ZM53.3333-1.33333 61.3333-1.33333 61.3333 1.33333 53.3333 1.33333ZM64-1.33333 72-1.33333 72 1.33333 64 1.33333ZM74.6667-1.33333 82.6667-1.33333 82.6667 1.33333 74.6667 1.33333ZM85.3333-1.33333 93.3333-1.33333 93.3333 1.33333 85.3333 1.33333ZM96-1.33333 104-1.33333 104 1.33333 96 1.33333ZM106.667-1.33333 114.667-1.33333 114.667 1.33333 106.667 1.33333ZM117.333-1.33333 125.333-1.33333 125.333 1.33333 117.333 1.33333ZM128-1.33333 132.087-1.33333 132.087 5.24664 129.42 5.24664 129.42 0 130.753 1.33333 128 1.33333ZM132.087 7.91331 132.087 15.9133 129.42 15.9133 129.42 7.91331ZM132.087 18.58 132.087 26.58 129.42 26.58 129.42 18.58ZM132.087 29.2466 132.087 37.2466 129.42 37.2466 129.42 29.2466ZM132.087 39.9133 132.087 47.9133 129.42 47.9133 129.42 39.9133ZM132.087 50.58 132.087 58.58 129.42 58.58 129.42 50.58ZM132.087 61.2466 132.087 69.2466 129.42 69.2466 129.42 61.2466ZM132.087 71.9133 132.087 79.9133 129.42 79.9133 129.42 71.9133ZM132.087 82.58 132.087 90.58 129.42 90.58 129.42 82.58ZM132.087 93.2466 132.087 101.247 129.42 101.247 129.42 93.2466ZM132.087 103.913 132.087 111.913 129.42 111.913 129.42 103.913ZM132.087 114.58 132.087 122.58 129.42 122.58 129.42 114.58ZM132.087 125.247 132.087 133.247 129.42 133.247 129.42 125.247ZM132.087 135.913 132.087 143.913 129.42 143.913 129.42 135.913ZM132.087 146.58 132.087 154.58 129.42 154.58 129.42 146.58ZM132.087 157.247 132.087 165.247 129.42 165.247 129.42 157.247ZM132.087 167.913 132.087 175.913 129.42 175.913 129.42 167.913ZM132.087 178.58 132.087 186.58 129.42 186.58 129.42 178.58ZM132.087 189.247 132.087 197.247 129.42 197.247 129.42 189.247ZM132.087 199.913 132.087 207.913 129.42 207.913 129.42 199.913ZM132.087 210.58 132.087 218.58 129.42 218.58 129.42 210.58ZM132.087 221.247 132.087 229.247 129.42 229.247 129.42 221.247ZM132.087 231.913 132.087 239.913 129.42 239.913 129.42 231.913ZM132.087 242.58 132.087 250.58 129.42 250.58 129.42 242.58ZM132.087 253.247 132.087 261.247 129.42 261.247 129.42 253.247ZM132.087 263.913 132.087 271.913 129.42 271.913 129.42 263.913ZM132.087 274.58 132.087 282.58 129.42 282.58 129.42 274.58ZM132.087 285.247 132.087 293.247 129.42 293.247 129.42 285.247ZM132.087 295.913 132.087 303.913 129.42 303.913 129.42 295.913ZM132.087 306.58 132.087 314.58 129.42 314.58 129.42 306.58ZM132.087 317.247 132.087 325.247 129.42 325.247 129.42 317.247ZM132.087 327.913 132.087 335.913 129.42 335.913 129.42 327.913ZM132.087 338.58 132.087 346.58 129.42 346.58 129.42 338.58ZM132.087 349.247 132.087 357.247 129.42 357.247 129.42 349.247ZM132.087 359.913 132.087 367.913 129.42 367.913 129.42 359.913ZM132.087 370.58 132.087 378.58 129.42 378.58 129.42 370.58ZM132.087 381.247 132.087 389.247 129.42 389.247 129.42 381.247ZM132.087 391.913 132.087 399.913 129.42 399.913 129.42 391.913ZM132.087 402.58 132.087 410.58 129.42 410.58 129.42 402.58ZM132.087 413.247 132.087 421.247 129.42 421.247 129.42 413.247ZM132.087 423.913 132.087 431.913 129.42 431.913 129.42 423.913ZM132.087 434.58 132.087 442.58 129.42 442.58 129.42 434.58ZM132.087 445.247 132.087 453.247 129.42 453.247 129.42 445.247ZM132.087 455.913 132.087 463.913 129.42 463.913 129.42 455.913ZM132.087 466.58 132.087 474.58 129.42 474.58 129.42 466.58ZM132.087 477.247 132.087 485.247 129.42 485.247 129.42 477.247ZM132.087 487.913 132.087 495.913 129.42 495.913 129.42 487.913ZM132.087 498.58 132.087 506.58 129.42 506.58 129.42 498.58ZM132.087 509.247 132.087 517.247 129.42 517.247 129.42 509.247ZM132.087 519.913 132.087 527.913 129.42 527.913 129.42 519.913ZM132.087 530.58 132.087 538.58 129.42 538.58 129.42 530.58ZM130.206 542.033 122.206 542.033 122.206 539.366 130.206 539.366ZM119.54 542.033 111.54 542.033 111.54 539.366 119.54 539.366ZM108.873 542.033 100.873 542.033 100.873 539.366 108.873 539.366ZM98.2064 542.033 90.2064 542.033 90.2064 539.366 98.2064 539.366ZM87.5397 542.033 79.5397 542.033 79.5397 539.366 87.5397 539.366ZM76.873 542.033 68.873 542.033 68.873 539.366 76.873 539.366ZM66.2064 542.033 58.2064 542.033 58.2064 539.366 66.2064 539.366ZM55.5397 542.033 47.5397 542.033 47.5397 539.366 55.5397 539.366ZM44.873 542.033 43.6019 542.033 43.6019 539.366 44.873 539.366ZM44.9352 544.7 36.9352 540.7 44.9352 536.7Z" fill="#92D050" transform="matrix(1.83697e-16 1 1 -1.83697e-16 155.5 353.5)"/><path d="M398 475.497C398 474.67 398.67 474 399.497 474L450.503 474C451.33 474 452 474.67 452 475.497L452 493.503C452 494.33 451.33 495 450.503 495L399.497 495C398.67 495 398 494.33 398 493.503Z" stroke="#5B9BD5" stroke-width="2.33333" stroke-miterlimit="8" fill="#FBE5D6" fill-rule="evenodd"/><text font-family="Times New Roman,Times New Roman_MSFontService,sans-serif" font-weight="400" font-size="13" transform="translate(417.365 489)">res</text><path d="M611 375 648.301 375 648.301 376.035 647.301 375.035 676.935 375.035 676.935 377.035 646.301 377.035 646.301 376 647.301 377 611 377ZM675.602 372.035 683.602 376.035 675.602 380.035Z" fill="#4472C4"/><path d="M1-4.5716e-06 1.00007 16.2984-0.999925 16.2984-1 4.5716e-06ZM4.00007 14.965 0.000104987 22.965-3.99993 14.9651Z" fill="#4472C4" transform="matrix(1 0 0 -1 696 362.965)"/></g></svg>